<svg xmlns="http://www.w3.org/2000/svg" xmlns:xlink="http://www.w3.org/1999/xlink" version="1.1" x="0px" y="0px" viewBox="0 0 93.357 88.6225" enable-background="new 0 0 93.357 70.898" xml:space="preserve"><circle cx="14.456" cy="52.065" r="4.728"/><circle cx="78.053" cy="52.065" r="4.728"/><path d="M78.053,43.958c-2.695,0-5.199,0.836-7.27,2.259l-8.099-8.098c2.761-3.535,4.409-7.979,4.409-12.812  c0-11.509-9.331-20.84-20.84-20.84c-11.51,0-20.84,9.331-20.84,20.84c0,4.832,1.648,9.275,4.409,12.811l-8.1,8.099  c-2.069-1.422-4.574-2.259-7.27-2.259c-7.099,0-12.871,5.773-12.871,12.87c0,7.1,5.772,12.871,12.871,12.871  c7.098,0,12.87-5.771,12.87-12.871c0-3.108-1.109-5.965-2.952-8.191l7.888-7.888c3.698,3.354,8.607,5.396,13.993,5.396  s10.294-2.043,13.993-5.396l7.887,7.888c-1.843,2.228-2.952,5.083-2.952,8.191c0,7.1,5.773,12.871,12.87,12.871  c7.098,0,12.871-5.771,12.871-12.871C90.924,49.731,85.15,43.958,78.053,43.958z M26.187,56.828c0,3.169-1.266,6.042-3.313,8.155  c-0.645-4.075-4.161-7.193-8.418-7.193c-4.256,0-7.774,3.118-8.419,7.193c-2.049-2.113-3.315-4.986-3.315-8.155  c0-6.47,5.264-11.73,11.733-11.73S26.187,50.359,26.187,56.828z M55.827,23.324c-0.319,2.096-1.295,3.354-2.413,4.565  c-2.464,2.566-5.426,4.418-7.312,6.151c-1.899-1.568-2.846-2.066-4.343-3.367c-1.41-1.226-3.016-2.506-4.12-4.047  c-1.069-1.492-1.938-4.116-1.262-6.496c0.554-1.951,2.083-3.511,4.64-3.674c3.123-0.032,4.326,2.066,5.048,3.636  c0.729-1.539,1.717-3.421,4.715-3.636c1.733-0.017,2.956,0.683,3.75,1.484C55.779,19.203,56.167,21.107,55.827,23.324z   M86.473,64.983c-0.645-4.075-4.163-7.193-8.418-7.193c-4.258,0-7.774,3.118-8.419,7.193c-2.048-2.113-3.313-4.986-3.312-8.155  c0-6.469,5.263-11.73,11.731-11.73s11.733,5.262,11.733,11.73C89.788,59.997,88.521,62.87,86.473,64.983z"/><text x="0" y="85.898" fill="#000000" font-size="5px" font-weight="bold" font-family="'Helvetica Neue', Helvetica, Arial-Unicode, Arial, Sans-serif">Created by corpus delicti</text><text x="0" y="90.898" fill="#000000" font-size="5px" font-weight="bold" font-family="'Helvetica Neue', Helvetica, Arial-Unicode, Arial, Sans-serif">from the Noun Project</text></svg>